<svg width="307" height="88" viewBox="0 0 307 88" fill="none" xmlns="http://www.w3.org/2000/svg">
<path d="M1.72949 8.70807H92.8525L85.3081 21.1877H24.7166L32.9683 34.6092H46.7605L31.6716 60.7457L1.72949 8.70807Z" fill="#999999"/>
<path d="M77.7638 34.7269H62.5913L55.3662 47.7952H69.8162L77.7638 34.7269Z" fill="#6AA84F"/>
<path d="M46.7603 60.8634H62.3208L46.7603 87L39.4517 73.6963L46.7603 60.8634Z" fill="#6AA84F"/>
<path d="M122.786 18.725V22.91H109.511V32.135H119.861V36.32H109.511V50H104.381V18.725H122.786ZM146.395 43.61H133.3L131.05 50H125.695L136.9 18.68H142.84L154.045 50H148.645L146.395 43.61ZM144.955 39.425L139.87 24.89L134.74 39.425H144.955ZM175.162 50L167.962 37.49H164.047V50H158.917V18.725H169.717C172.117 18.725 174.142 19.145 175.792 19.985C177.472 20.825 178.717 21.95 179.527 23.36C180.367 24.77 180.787 26.345 180.787 28.085C180.787 30.125 180.187 31.985 178.987 33.665C177.817 35.315 176.002 36.44 173.542 37.04L181.282 50H175.162ZM164.047 33.395H169.717C171.637 33.395 173.077 32.915 174.037 31.955C175.027 30.995 175.522 29.705 175.522 28.085C175.522 26.465 175.042 25.205 174.082 24.305C173.122 23.375 171.667 22.91 169.717 22.91H164.047V33.395ZM203.595 50L196.395 37.49H192.48V50H187.35V18.725H198.15C200.55 18.725 202.575 19.145 204.225 19.985C205.905 20.825 207.15 21.95 207.96 23.36C208.8 24.77 209.22 26.345 209.22 28.085C209.22 30.125 208.62 31.985 207.42 33.665C206.25 35.315 204.435 36.44 201.975 37.04L209.715 50H203.595ZM192.48 33.395H198.15C200.07 33.395 201.51 32.915 202.47 31.955C203.46 30.995 203.955 29.705 203.955 28.085C203.955 26.465 203.475 25.205 202.515 24.305C201.555 23.375 200.1 22.91 198.15 22.91H192.48V33.395ZM248.722 18.725V50H243.592V28.58L234.052 50H230.497L220.912 28.58V50H215.782V18.725H221.317L232.297 43.25L243.232 18.725H248.722ZM260.595 18.725V50H255.465V18.725H260.595ZM272.46 45.86H283.035V50H267.33V18.725H272.46V45.86ZM292.455 45.86H303.03V50H287.325V18.725H292.455V45.86Z" fill="#6AA84F"/>
<path d="M117.563 60.4402C117.563 61.4856 117.311 62.4656 116.807 63.3802C116.322 64.2949 115.547 65.0322 114.483 65.5922C113.438 66.1522 112.113 66.4322 110.507 66.4322H107.231V73.9362H103.311V54.3922H110.507C112.019 54.3922 113.307 54.6536 114.371 55.1762C115.435 55.6989 116.229 56.4176 116.751 57.3322C117.293 58.2469 117.563 59.2829 117.563 60.4402ZM110.339 63.2682C111.422 63.2682 112.225 63.0256 112.747 62.5402C113.27 62.0362 113.531 61.3362 113.531 60.4402C113.531 58.5362 112.467 57.5842 110.339 57.5842H107.231V63.2682H110.339ZM124.266 57.5562V62.4562H130.846V65.5642H124.266V70.7442H131.686V73.9362H120.346V54.3642H131.686V57.5562H124.266ZM141.997 74.1322C140.634 74.1322 139.402 73.8989 138.301 73.4322C137.218 72.9656 136.359 72.2936 135.725 71.4162C135.09 70.5389 134.763 69.5029 134.745 68.3082H138.945C139.001 69.1109 139.281 69.7456 139.785 70.2122C140.307 70.6789 141.017 70.9122 141.913 70.9122C142.827 70.9122 143.546 70.6976 144.069 70.2682C144.591 69.8202 144.853 69.2416 144.853 68.5322C144.853 67.9536 144.675 67.4776 144.321 67.1042C143.966 66.7309 143.518 66.4416 142.977 66.2362C142.454 66.0122 141.726 65.7696 140.793 65.5082C139.523 65.1349 138.487 64.7709 137.685 64.4162C136.901 64.0429 136.219 63.4922 135.641 62.7642C135.081 62.0176 134.801 61.0282 134.801 59.7962C134.801 58.6389 135.09 57.6309 135.669 56.7722C136.247 55.9136 137.059 55.2602 138.105 54.8122C139.15 54.3456 140.345 54.1122 141.689 54.1122C143.705 54.1122 145.338 54.6069 146.589 55.5962C147.858 56.5669 148.558 57.9296 148.689 59.6842H144.377C144.339 59.0122 144.05 58.4616 143.509 58.0322C142.986 57.5842 142.286 57.3602 141.409 57.3602C140.643 57.3602 140.027 57.5562 139.561 57.9482C139.113 58.3402 138.889 58.9096 138.889 59.6562C138.889 60.1789 139.057 60.6176 139.393 60.9722C139.747 61.3082 140.177 61.5882 140.681 61.8122C141.203 62.0176 141.931 62.2602 142.865 62.5402C144.134 62.9136 145.17 63.2869 145.973 63.6602C146.775 64.0336 147.466 64.5936 148.045 65.3402C148.623 66.0869 148.913 67.0669 148.913 68.2802C148.913 69.3256 148.642 70.2962 148.101 71.1922C147.559 72.0882 146.766 72.8069 145.721 73.3482C144.675 73.8709 143.434 74.1322 141.997 74.1322ZM165.611 54.3922V57.5562H160.403V73.9362H156.483V57.5562H151.275V54.3922H165.611ZM174.191 64.1362C174.191 62.2136 174.621 60.4962 175.479 58.9842C176.357 57.4536 177.542 56.2682 179.035 55.4282C180.547 54.5696 182.237 54.1402 184.103 54.1402C186.287 54.1402 188.201 54.7002 189.843 55.8202C191.486 56.9402 192.634 58.4896 193.287 60.4682H188.779C188.331 59.5349 187.697 58.8349 186.875 58.3682C186.073 57.9016 185.139 57.6682 184.075 57.6682C182.937 57.6682 181.919 57.9389 181.023 58.4802C180.146 59.0029 179.455 59.7496 178.951 60.7202C178.466 61.6909 178.223 62.8296 178.223 64.1362C178.223 65.4242 178.466 66.5629 178.951 67.5522C179.455 68.5229 180.146 69.2789 181.023 69.8202C181.919 70.3429 182.937 70.6042 184.075 70.6042C185.139 70.6042 186.073 70.3709 186.875 69.9042C187.697 69.4189 188.331 68.7096 188.779 67.7762H193.287C192.634 69.7736 191.486 71.3322 189.843 72.4522C188.219 73.5536 186.306 74.1042 184.103 74.1042C182.237 74.1042 180.547 73.6842 179.035 72.8442C177.542 71.9856 176.357 70.8002 175.479 69.2882C174.621 67.7762 174.191 66.0589 174.191 64.1362ZM205.708 74.1322C203.878 74.1322 202.198 73.7029 200.668 72.8442C199.137 71.9856 197.924 70.8002 197.028 69.2882C196.132 67.7576 195.684 66.0309 195.684 64.1082C195.684 62.2042 196.132 60.4962 197.028 58.9842C197.924 57.4536 199.137 56.2589 200.668 55.4002C202.198 54.5416 203.878 54.1122 205.708 54.1122C207.556 54.1122 209.236 54.5416 210.748 55.4002C212.278 56.2589 213.482 57.4536 214.36 58.9842C215.256 60.4962 215.704 62.2042 215.704 64.1082C215.704 66.0309 215.256 67.7576 214.36 69.2882C213.482 70.8002 212.278 71.9856 210.748 72.8442C209.217 73.7029 207.537 74.1322 205.708 74.1322ZM205.708 70.6322C206.884 70.6322 207.92 70.3709 208.816 69.8482C209.712 69.3069 210.412 68.5416 210.916 67.5522C211.42 66.5629 211.672 65.4149 211.672 64.1082C211.672 62.8016 211.42 61.6629 210.916 60.6922C210.412 59.7029 209.712 58.9469 208.816 58.4242C207.92 57.9016 206.884 57.6402 205.708 57.6402C204.532 57.6402 203.486 57.9016 202.572 58.4242C201.676 58.9469 200.976 59.7029 200.472 60.6922C199.968 61.6629 199.716 62.8016 199.716 64.1082C199.716 65.4149 199.968 66.5629 200.472 67.5522C200.976 68.5416 201.676 69.3069 202.572 69.8482C203.486 70.3709 204.532 70.6322 205.708 70.6322ZM235.336 73.9362H231.416L222.54 60.5242V73.9362H218.62V54.3642H222.54L231.416 67.8042V54.3642H235.336V73.9362ZM252.51 54.3922V57.5562H247.302V73.9362H243.382V57.5562H238.174V54.3922H252.51ZM265.45 73.9362L261.138 66.3202H259.29V73.9362H255.37V54.3922H262.706C264.218 54.3922 265.506 54.6629 266.57 55.2042C267.634 55.7269 268.427 56.4456 268.95 57.3602C269.491 58.2562 269.762 59.2642 269.762 60.3842C269.762 61.6722 269.389 62.8389 268.642 63.8842C267.895 64.9109 266.785 65.6202 265.31 66.0122L269.986 73.9362H265.45ZM259.29 63.3802H262.566C263.63 63.3802 264.423 63.1282 264.946 62.6242C265.469 62.1016 265.73 61.3829 265.73 60.4682C265.73 59.5722 265.469 58.8816 264.946 58.3962C264.423 57.8922 263.63 57.6402 262.566 57.6402H259.29V63.3802ZM282.379 74.1322C280.55 74.1322 278.87 73.7029 277.339 72.8442C275.809 71.9856 274.595 70.8002 273.699 69.2882C272.803 67.7576 272.355 66.0309 272.355 64.1082C272.355 62.2042 272.803 60.4962 273.699 58.9842C274.595 57.4536 275.809 56.2589 277.339 55.4002C278.87 54.5416 280.55 54.1122 282.379 54.1122C284.227 54.1122 285.907 54.5416 287.419 55.4002C288.95 56.2589 290.154 57.4536 291.031 58.9842C291.927 60.4962 292.375 62.2042 292.375 64.1082C292.375 66.0309 291.927 67.7576 291.031 69.2882C290.154 70.8002 288.95 71.9856 287.419 72.8442C285.889 73.7029 284.209 74.1322 282.379 74.1322ZM282.379 70.6322C283.555 70.6322 284.591 70.3709 285.487 69.8482C286.383 69.3069 287.083 68.5416 287.587 67.5522C288.091 66.5629 288.343 65.4149 288.343 64.1082C288.343 62.8016 288.091 61.6629 287.587 60.6922C287.083 59.7029 286.383 58.9469 285.487 58.4242C284.591 57.9016 283.555 57.6402 282.379 57.6402C281.203 57.6402 280.158 57.9016 279.243 58.4242C278.347 58.9469 277.647 59.7029 277.143 60.6922C276.639 61.6629 276.387 62.8016 276.387 64.1082C276.387 65.4149 276.639 66.5629 277.143 67.5522C277.647 68.5416 278.347 69.3069 279.243 69.8482C280.158 70.3709 281.203 70.6322 282.379 70.6322ZM299.212 70.8282H305.652V73.9362H295.292V54.3922H299.212V70.8282Z" fill="#999999"/>
</svg>
