<svg width="307" height="88" viewBox="0 0 307 88" fill="none" xmlns="http://www.w3.org/2000/svg" shape-rendering="geometricPrecision">
<path d="M1.72974 8.70807H92.8528L85.3083 21.1877H24.7168L32.9686 34.6092H46.7608L31.6719 60.7457L1.72974 8.70807Z" fill="#333333"/>
<path d="M77.7638 34.7269H62.5913L55.3662 47.7952H69.8162L77.7638 34.7269Z" fill="#6AA84F"/>
<path d="M46.7608 60.8634H62.3213L46.7608 87L39.4521 73.6963L46.7608 60.8634Z" fill="#6AA84F"/>
<path d="M122.787 18.725V22.91H109.512V32.135H119.862V36.32H109.512V50H104.382V18.725H122.787ZM146.396 43.61H133.301L131.051 50H125.696L136.901 18.68H142.841L154.046 50H148.646L146.396 43.61ZM144.956 39.425L139.871 24.89L134.741 39.425H144.956ZM175.163 50L167.963 37.49H164.048V50H158.918V18.725H169.718C172.118 18.725 174.143 19.145 175.793 19.985C177.473 20.825 178.718 21.95 179.528 23.36C180.368 24.77 180.788 26.345 180.788 28.085C180.788 30.125 180.188 31.985 178.988 33.665C177.818 35.315 176.003 36.44 173.543 37.04L181.283 50H175.163ZM164.048 33.395H169.718C171.638 33.395 173.078 32.915 174.038 31.955C175.028 30.995 175.523 29.705 175.523 28.085C175.523 26.465 175.043 25.205 174.083 24.305C173.123 23.375 171.668 22.91 169.718 22.91H164.048V33.395ZM203.595 50L196.395 37.49H192.48V50H187.35V18.725H198.15C200.55 18.725 202.575 19.145 204.225 19.985C205.905 20.825 207.15 21.95 207.96 23.36C208.8 24.77 209.22 26.345 209.22 28.085C209.22 30.125 208.62 31.985 207.42 33.665C206.25 35.315 204.435 36.44 201.975 37.04L209.715 50H203.595ZM192.48 33.395H198.15C200.07 33.395 201.51 32.915 202.47 31.955C203.46 30.995 203.955 29.705 203.955 28.085C203.955 26.465 203.475 25.205 202.515 24.305C201.555 23.375 200.1 22.91 198.15 22.91H192.48V33.395ZM248.723 18.725V50H243.593V28.58L234.053 50H230.498L220.913 28.58V50H215.783V18.725H221.318L232.298 43.25L243.233 18.725H248.723ZM260.596 18.725V50H255.466V18.725H260.596ZM272.461 45.86H283.036V50H267.331V18.725H272.461V45.86ZM292.456 45.86H303.031V50H287.326V18.725H292.456V45.86Z" fill="#6AA84F"/>
<path d="M117.564 60.4402C117.564 61.4856 117.312 62.4656 116.808 63.3802C116.322 64.2949 115.548 65.0322 114.484 65.5922C113.438 66.1522 112.113 66.4322 110.508 66.4322H107.232V73.9362H103.312V54.3922H110.508C112.02 54.3922 113.308 54.6536 114.372 55.1762C115.436 55.6989 116.229 56.4176 116.752 57.3322C117.293 58.2469 117.564 59.2829 117.564 60.4402ZM110.34 63.2682C111.422 63.2682 112.225 63.0256 112.748 62.5402C113.27 62.0362 113.532 61.3362 113.532 60.4402C113.532 58.5362 112.468 57.5842 110.34 57.5842H107.232V63.2682H110.34ZM124.267 57.5562V62.4562H130.847V65.5642H124.267V70.7442H131.687V73.9362H120.347V54.3642H131.687V57.5562H124.267ZM141.997 74.1322C140.635 74.1322 139.403 73.8989 138.301 73.4322C137.219 72.9656 136.36 72.2936 135.725 71.4162C135.091 70.5389 134.764 69.5029 134.745 68.3082H138.945C139.001 69.1109 139.281 69.7456 139.785 70.2122C140.308 70.6789 141.017 70.9122 141.913 70.9122C142.828 70.9122 143.547 70.6976 144.069 70.2682C144.592 69.8202 144.853 69.2416 144.853 68.5322C144.853 67.9536 144.676 67.4776 144.321 67.1042C143.967 66.7309 143.519 66.4416 142.977 66.2362C142.455 66.0122 141.727 65.7696 140.793 65.5082C139.524 65.1349 138.488 64.7709 137.685 64.4162C136.901 64.0429 136.22 63.4922 135.641 62.7642C135.081 62.0176 134.801 61.0282 134.801 59.7962C134.801 58.6389 135.091 57.6309 135.669 56.7722C136.248 55.9136 137.06 55.2602 138.105 54.8122C139.151 54.3456 140.345 54.1122 141.689 54.1122C143.705 54.1122 145.339 54.6069 146.589 55.5962C147.859 56.5669 148.559 57.9296 148.689 59.6842H144.377C144.34 59.0122 144.051 58.4616 143.509 58.0322C142.987 57.5842 142.287 57.3602 141.409 57.3602C140.644 57.3602 140.028 57.5562 139.561 57.9482C139.113 58.3402 138.889 58.9096 138.889 59.6562C138.889 60.1789 139.057 60.6176 139.393 60.9722C139.748 61.3082 140.177 61.5882 140.681 61.8122C141.204 62.0176 141.932 62.2602 142.865 62.5402C144.135 62.9136 145.171 63.2869 145.973 63.6602C146.776 64.0336 147.467 64.5936 148.045 65.3402C148.624 66.0869 148.913 67.0669 148.913 68.2802C148.913 69.3256 148.643 70.2962 148.101 71.1922C147.56 72.0882 146.767 72.8069 145.721 73.3482C144.676 73.8709 143.435 74.1322 141.997 74.1322ZM165.612 54.3922V57.5562H160.404V73.9362H156.484V57.5562H151.276V54.3922H165.612ZM174.192 64.1362C174.192 62.2136 174.621 60.4962 175.48 58.9842C176.357 57.4536 177.542 56.2682 179.036 55.4282C180.548 54.5696 182.237 54.1402 184.104 54.1402C186.288 54.1402 188.201 54.7002 189.844 55.8202C191.486 56.9402 192.634 58.4896 193.288 60.4682H188.78C188.332 59.5349 187.697 58.8349 186.876 58.3682C186.073 57.9016 185.14 57.6682 184.076 57.6682C182.937 57.6682 181.92 57.9389 181.024 58.4802C180.146 59.0029 179.456 59.7496 178.952 60.7202C178.466 61.6909 178.224 62.8296 178.224 64.1362C178.224 65.4242 178.466 66.5629 178.952 67.5522C179.456 68.5229 180.146 69.2789 181.024 69.8202C181.92 70.3429 182.937 70.6042 184.076 70.6042C185.14 70.6042 186.073 70.3709 186.876 69.9042C187.697 69.4189 188.332 68.7096 188.78 67.7762H193.288C192.634 69.7736 191.486 71.3322 189.844 72.4522C188.22 73.5536 186.306 74.1042 184.104 74.1042C182.237 74.1042 180.548 73.6842 179.036 72.8442C177.542 71.9856 176.357 70.8002 175.48 69.2882C174.621 67.7762 174.192 66.0589 174.192 64.1362ZM205.708 74.1322C203.879 74.1322 202.199 73.7029 200.668 72.8442C199.137 71.9856 197.924 70.8002 197.028 69.2882C196.132 67.7576 195.684 66.0309 195.684 64.1082C195.684 62.2042 196.132 60.4962 197.028 58.9842C197.924 57.4536 199.137 56.2589 200.668 55.4002C202.199 54.5416 203.879 54.1122 205.708 54.1122C207.556 54.1122 209.236 54.5416 210.748 55.4002C212.279 56.2589 213.483 57.4536 214.36 58.9842C215.256 60.4962 215.704 62.2042 215.704 64.1082C215.704 66.0309 215.256 67.7576 214.36 69.2882C213.483 70.8002 212.279 71.9856 210.748 72.8442C209.217 73.7029 207.537 74.1322 205.708 74.1322ZM205.708 70.6322C206.884 70.6322 207.92 70.3709 208.816 69.8482C209.712 69.3069 210.412 68.5416 210.916 67.5522C211.42 66.5629 211.672 65.4149 211.672 64.1082C211.672 62.8016 211.42 61.6629 210.916 60.6922C210.412 59.7029 209.712 58.9469 208.816 58.4242C207.92 57.9016 206.884 57.6402 205.708 57.6402C204.532 57.6402 203.487 57.9016 202.572 58.4242C201.676 58.9469 200.976 59.7029 200.472 60.6922C199.968 61.6629 199.716 62.8016 199.716 64.1082C199.716 65.4149 199.968 66.5629 200.472 67.5522C200.976 68.5416 201.676 69.3069 202.572 69.8482C203.487 70.3709 204.532 70.6322 205.708 70.6322ZM235.336 73.9362H231.416L222.54 60.5242V73.9362H218.62V54.3642H222.54L231.416 67.8042V54.3642H235.336V73.9362ZM252.51 54.3922V57.5562H247.302V73.9362H243.382V57.5562H238.174V54.3922H252.51ZM265.45 73.9362L261.138 66.3202H259.29V73.9362H255.37V54.3922H262.706C264.218 54.3922 265.506 54.6629 266.57 55.2042C267.634 55.7269 268.428 56.4456 268.95 57.3602C269.492 58.2562 269.762 59.2642 269.762 60.3842C269.762 61.6722 269.389 62.8389 268.642 63.8842C267.896 64.9109 266.785 65.6202 265.31 66.0122L269.986 73.9362H265.45ZM259.29 63.3802H262.566C263.63 63.3802 264.424 63.1282 264.946 62.6242C265.469 62.1016 265.73 61.3829 265.73 60.4682C265.73 59.5722 265.469 58.8816 264.946 58.3962C264.424 57.8922 263.63 57.6402 262.566 57.6402H259.29V63.3802ZM282.38 74.1322C280.551 74.1322 278.871 73.7029 277.34 72.8442C275.809 71.9856 274.596 70.8002 273.7 69.2882C272.804 67.7576 272.356 66.0309 272.356 64.1082C272.356 62.2042 272.804 60.4962 273.7 58.9842C274.596 57.4536 275.809 56.2589 277.34 55.4002C278.871 54.5416 280.551 54.1122 282.38 54.1122C284.228 54.1122 285.908 54.5416 287.42 55.4002C288.951 56.2589 290.155 57.4536 291.032 58.9842C291.928 60.4962 292.376 62.2042 292.376 64.1082C292.376 66.0309 291.928 67.7576 291.032 69.2882C290.155 70.8002 288.951 71.9856 287.42 72.8442C285.889 73.7029 284.209 74.1322 282.38 74.1322ZM282.38 70.6322C283.556 70.6322 284.592 70.3709 285.488 69.8482C286.384 69.3069 287.084 68.5416 287.588 67.5522C288.092 66.5629 288.344 65.4149 288.344 64.1082C288.344 62.8016 288.092 61.6629 287.588 60.6922C287.084 59.7029 286.384 58.9469 285.488 58.4242C284.592 57.9016 283.556 57.6402 282.38 57.6402C281.204 57.6402 280.159 57.9016 279.244 58.4242C278.348 58.9469 277.648 59.7029 277.144 60.6922C276.64 61.6629 276.388 62.8016 276.388 64.1082C276.388 65.4149 276.64 66.5629 277.144 67.5522C277.648 68.5416 278.348 69.3069 279.244 69.8482C280.159 70.3709 281.204 70.6322 282.38 70.6322ZM299.212 70.8282H305.652V73.9362H295.292V54.3922H299.212V70.8282Z" fill="#333333"/>
</svg>
